<svg width="15" height="11" viewBox="0 0 15 11" fill="none" xmlns="http://www.w3.org/2000/svg">
<path d="M5.2175 10.4343C5.13184 10.4345 5.04701 10.4176 4.96788 10.3849C4.88874 10.3521 4.81686 10.304 4.75638 10.2433L0.191058 5.67838C0.130492 5.61783 0.0824471 5.54594 0.0496654 5.46681C0.0168837 5.38769 7.38397e-06 5.30289 2.4225e-09 5.21724C-7.37913e-06 5.1316 0.0168544 5.04679 0.0496225 4.96766C0.0823905 4.88853 0.130423 4.81663 0.190978 4.75607C0.251533 4.6955 0.323424 4.64746 0.402547 4.61467C0.481669 4.58189 0.566474 4.56502 0.652119 4.56501C0.737764 4.565 0.822571 4.58186 0.9017 4.61463C0.980828 4.6474 1.05273 4.69543 1.11329 4.75599L5.2175 8.85983L13.8869 0.190708C14.0093 0.0685389 14.1751 -5.59198e-05 14.348 3.42051e-08C14.5209 5.59882e-05 14.6867 0.0687583 14.809 0.191006C14.9312 0.313254 14.9999 0.479044 15 0.651936C15.0001 0.824828 14.9315 0.990674 14.8093 1.11302L5.67869 10.2433C5.61818 10.304 5.54629 10.3521 5.46714 10.3848C5.388 10.4176 5.30316 10.4344 5.2175 10.4343Z" fill="#00C938"/>
</svg>
